<svg xmlns="http://www.w3.org/2000/svg" xmlns:xlink="http://www.w3.org/1999/xlink" width="500" zoomAndPan="magnify" viewBox="0 0 375 74.999997" height="100" preserveAspectRatio="xMidYMid meet" version="1.0"><defs><g/></defs><g fill="#227421" fill-opacity="1"><g transform="translate(7.500007, 61.003728)"><g><path d="M 0 -5.828125 L 0 -46.640625 L 34.984375 -46.640625 L 34.984375 -40.8125 L 40.8125 -40.8125 L 40.8125 -23.328125 L 34.984375 -23.328125 L 34.984375 -17.484375 L 11.65625 -17.484375 L 11.65625 -5.828125 Z M 11.65625 -23.328125 L 29.15625 -23.328125 L 29.15625 -40.8125 L 11.65625 -40.8125 Z M 11.65625 -23.328125 "/></g></g></g><g fill="#227421" fill-opacity="1"><g transform="translate(54.13162, 61.003728)"><g><path d="M 5.828125 -5.828125 L 5.828125 -11.65625 L 0 -11.65625 L 0 -29.15625 L 5.828125 -29.15625 L 5.828125 -34.984375 L 34.984375 -34.984375 L 34.984375 -29.15625 L 40.8125 -29.15625 L 40.8125 -11.65625 L 34.984375 -11.65625 L 34.984375 -5.828125 Z M 11.65625 -11.65625 L 29.15625 -11.65625 L 29.15625 -29.15625 L 11.65625 -29.15625 Z M 11.65625 -11.65625 "/></g></g></g><g fill="#227421" fill-opacity="1"><g transform="translate(100.763233, 61.003728)"><g><path d="M 5.828125 -5.828125 L 5.828125 -11.65625 L 0 -11.65625 L 0 -34.984375 L 11.65625 -34.984375 L 11.65625 -11.65625 L 29.15625 -11.65625 L 29.15625 -34.984375 L 40.8125 -34.984375 L 40.8125 -5.828125 Z M 5.828125 -5.828125 "/></g></g></g><g fill="#227421" fill-opacity="1"><g transform="translate(147.394846, 61.003728)"><g><path d="M 0 0 L 0 -34.984375 L 34.984375 -34.984375 L 34.984375 -29.15625 L 40.8125 -29.15625 L 40.8125 -17.484375 L 34.984375 -17.484375 L 34.984375 -11.65625 L 11.65625 -11.65625 L 11.65625 0 Z M 11.65625 -17.484375 L 29.15625 -17.484375 L 29.15625 -29.15625 L 11.65625 -29.15625 Z M 11.65625 -17.484375 "/></g></g></g><g fill="#2fc439" fill-opacity="1"><g transform="translate(180.95617, 61.003728)"><g><path d="M 17.484375 -40.8125 L 17.484375 -46.640625 L 29.15625 -46.640625 L 29.15625 -40.8125 Z M 5.828125 -5.828125 L 5.828125 -11.65625 L 17.484375 -11.65625 L 17.484375 -29.15625 L 11.65625 -29.15625 L 11.65625 -34.984375 L 29.15625 -34.984375 L 29.15625 -11.65625 L 40.8125 -11.65625 L 40.8125 -5.828125 Z M 5.828125 -5.828125 "/></g></g></g><g fill="#2fc439" fill-opacity="1"><g transform="translate(227.587783, 61.003728)"><g><path d="M 0 -5.828125 L 0 -11.65625 L 5.828125 -11.65625 L 5.828125 -17.484375 L 11.65625 -17.484375 L 11.65625 -23.328125 L 5.828125 -23.328125 L 5.828125 -29.15625 L 0 -29.15625 L 0 -34.984375 L 11.65625 -34.984375 L 11.65625 -29.15625 L 17.484375 -29.15625 L 17.484375 -23.328125 L 23.328125 -23.328125 L 23.328125 -29.15625 L 29.15625 -29.15625 L 29.15625 -34.984375 L 40.8125 -34.984375 L 40.8125 -29.15625 L 34.984375 -29.15625 L 34.984375 -23.328125 L 29.15625 -23.328125 L 29.15625 -17.484375 L 34.984375 -17.484375 L 34.984375 -11.65625 L 40.8125 -11.65625 L 40.8125 -5.828125 L 29.15625 -5.828125 L 29.15625 -11.65625 L 23.328125 -11.65625 L 23.328125 -17.484375 L 17.484375 -17.484375 L 17.484375 -11.65625 L 11.65625 -11.65625 L 11.65625 -5.828125 Z M 0 -5.828125 "/></g></g></g><g fill="#2fc439" fill-opacity="1"><g transform="translate(274.219396, 61.003728)"><g><path d="M 5.828125 -5.828125 L 5.828125 -11.65625 L 0 -11.65625 L 0 -29.15625 L 5.828125 -29.15625 L 5.828125 -34.984375 L 34.984375 -34.984375 L 34.984375 -29.15625 L 40.8125 -29.15625 L 40.8125 -17.484375 L 11.65625 -17.484375 L 11.65625 -11.65625 L 34.984375 -11.65625 L 34.984375 -5.828125 Z M 11.65625 -23.328125 L 29.15625 -23.328125 L 29.15625 -29.15625 L 11.65625 -29.15625 Z M 11.65625 -23.328125 "/></g></g></g><g fill="#2fc439" fill-opacity="1"><g transform="translate(320.851009, 61.003728)"><g><path d="M 5.828125 -5.828125 L 5.828125 -11.65625 L 17.484375 -11.65625 L 17.484375 -40.8125 L 11.65625 -40.8125 L 11.65625 -46.640625 L 29.15625 -46.640625 L 29.15625 -11.65625 L 40.8125 -11.65625 L 40.8125 -5.828125 Z M 5.828125 -5.828125 "/></g></g></g></svg>